<svg width="819" height="117" viewBox="0 0 819 117" fill="none" xmlns="http://www.w3.org/2000/svg">
    <mask id="mask0_2228_12996" style="mask-type:luminance" maskUnits="userSpaceOnUse" x="0" y="7"
        width="819" height="88">
        <path d="M818.45 7.25781H0.914062V94.3983H818.45V7.25781Z" fill="white" />
    </mask>
    <g mask="url(#mask0_2228_12996)">
        <path
            d="M0.914062 65.3515C16.8106 65.3515 30.4362 79.8749 46.3327 79.8749C62.2293 79.8749 75.8549 50.8281 91.7514 50.8281C107.648 50.8281 121.274 50.8281 137.17 50.8281C153.067 50.8281 166.692 36.3047 182.589 36.3047C198.485 36.3047 212.111 45.0187 228.007 45.0187C243.904 45.0187 257.53 27.5906 273.426 27.5906C289.323 27.5906 302.948 36.3047 318.845 36.3047C334.741 36.3047 348.367 21.7812 364.263 21.7812C380.16 21.7812 393.786 30.4953 409.682 30.4953C425.579 30.4953 439.204 50.8281 455.101 50.8281C470.997 50.8281 484.623 33.4 500.52 33.4C516.416 33.4 530.042 65.3515 545.938 65.3515C561.835 65.3515 575.46 50.8281 591.357 50.8281C607.253 50.8281 620.879 36.3047 636.776 36.3047C652.672 36.3047 666.298 45.0187 682.194 45.0187C698.091 45.0187 711.716 27.5906 727.613 27.5906C743.509 27.5906 757.135 36.3047 773.032 36.3047C788.928 36.3047 802.554 65.3515 818.45 65.3515C818.45 65.3515 818.45 65.3515 818.45 94.3983H0.914062V65.3515Z"
            fill="url(#paint0_linear_2228_12996)" />
    </g>
    <mask id="mask1_2228_12996" style="mask-type:luminance" maskUnits="userSpaceOnUse" x="0" y="7"
        width="817" height="87">
        <path d="M816.211 7H0.921875V94H816.211V7Z" fill="white" />
    </mask>
    <g mask="url(#mask1_2228_12996)">
        <path
            d="M0.914062 65.3515C16.8106 65.3515 30.4362 79.8749 46.3327 79.8749C62.2293 79.8749 75.8549 50.8281 91.7514 50.8281C107.648 50.8281 121.274 50.8281 137.17 50.8281C153.067 50.8281 166.692 36.3047 182.589 36.3047C198.485 36.3047 212.111 45.0187 228.007 45.0187C243.904 45.0187 257.53 27.5906 273.426 27.5906C289.323 27.5906 302.948 36.3047 318.845 36.3047C334.741 36.3047 348.367 21.7812 364.263 21.7812C380.16 21.7812 393.786 30.4953 409.682 30.4953C425.579 30.4953 439.204 50.8281 455.101 50.8281C470.997 50.8281 484.623 33.4 500.52 33.4C516.416 33.4 530.042 65.3515 545.938 65.3515C561.835 65.3515 575.46 50.8281 591.357 50.8281C607.253 50.8281 620.879 36.3047 636.776 36.3047C652.672 36.3047 666.298 45.0187 682.194 45.0187C698.091 45.0187 711.716 27.5906 727.613 27.5906C743.509 27.5906 757.135 36.3047 773.032 36.3047C788.928 36.3047 802.554 65.3515 818.45 65.3515"
            stroke="#87489A" stroke-width="2.90468" />
    </g>
    <defs>
        <linearGradient id="paint0_linear_2228_12996" x1="0.914062" y1="21.7812" x2="0.914062"
            y2="94.3983" gradientUnits="userSpaceOnUse">
            <stop stop-color="#87489A" />
            <stop offset="0.85" stop-color="#87489A" stop-opacity="0.1" />
            <stop offset="0.9" stop-color="#87489A" stop-opacity="0.01" />
        </linearGradient>
    </defs>
</svg>